<?xml version="1.0" encoding="UTF-8" standalone="no"?>
<svg

   xmlns:svg="http://www.w3.org/2000/svg"
   xmlns="http://www.w3.org/2000/svg"
   viewBox="0 0 574.95099 573.71167"
   id="svg3713"
   version="1.1">
  <metadata
     id="metadata3719">
    <rdf:RDF>
      <cc:Work
         rdf:about="">
        <dc:format>image/svg+xml</dc:format>
        <dc:type
           rdf:resource="http://purl.org/dc/dcmitype/StillImage" />
        <dc:title></dc:title>
      </cc:Work>
    </rdf:RDF>
  </metadata>
  <defs
     id="defs3717" />
  <path
     id="path3723"
     d="m 270.15684,573.24429 c -29.3419,-1.68872 -61.0845,-8.79268 -88.8954,-19.89468 -11.9242,-4.76008 -30.5728,-13.71902 -38.8422,-18.66015 l -6.238,-3.72724 -0.262,-77.57326 c -0.1442,-42.66529 -0.023,-77.90224 0.2689,-78.30432 0.5292,-0.72847 195.0962,193.27694 195.3405,194.77667 0.071,0.43375 -0.7715,0.87125 -1.8715,0.97224 -1.1,0.10099 -6.95,0.68623 -13,1.30053 -16.0502,1.62971 -31.1924,1.99124 -46.5003,1.11021 z m 27.9032,-61.55277 c -30.1966,-30.15131 -54.9029,-55.3955 -54.9029,-56.09819 0,-1.03067 26.6751,-1.27763 138,-1.27763 110.3614,0 138,0.2525 138,1.26076 0,4.19353 -33.5068,39.7287 -51.5,54.6177 -6.6923,5.53769 -31.674,23.12154 -32.8492,23.12154 -0.3095,0 -2.9451,1.41791 -5.8568,3.15091 -17.4701,10.3979 -44.7581,21.61484 -66.794,27.45613 -3.025,0.80187 -6.3312,1.71251 -7.3471,2.02365 -1.4297,0.43788 -14.2528,-11.82139 -56.75,-54.25487 z M 98.541144,501.91223 c -18.04424,-15.674 -25.60151,-23.5344 -39.34122,-40.91931 -9.2546,-11.70987 -23.23585,-33.83588 -28.23118,-44.67722 -9.432,-20.47025 -12.77703,-28.60629 -16.91914,-41.15208 -2.66064,-8.05864 -5.1397798,-16.54223 -5.5091898,-18.85242 l -0.67166,-4.20034 54.8907798,-54.89758 c 30.18991,-30.19367 55.229806,-54.89758 55.644206,-54.89758 0.4144,0 0.7534,62.1 0.7534,138 0,77.09587 -0.3822,138 -0.866,138 -0.4763,0 -9.3638,-7.38156 -19.749996,-16.40347 z M 375.15714,437.551 c 0,-1.73398 195.0313,-195.59979 195.8632,-194.6927 1.1952,1.30332 3.1017,19.05158 3.8088,35.4574 0.9393,21.79496 -3.669,60.69289 -9.8332,83 -4.7824,17.30663 -10.4666,32.7962 -17.8884,48.74643 -4.3128,9.26862 -12.2875,23.57408 -14.7746,26.50357 -1.3915,1.63896 -6.4254,1.75 -79.3308,1.75 -42.8148,0 -77.845,-0.34412 -77.845,-0.7647 z M 2.7574342,326.0657 c -0.29899,-2.8875 -1.00637,-9.6017 -1.57196,-14.92044 -4.27458,-40.19747 3.23001,-91.74602 18.9737498,-130.32956 5.33382,-13.07172 16.00794,-34.53584 20.70255,-41.62988 l 2.56112,-3.87012 h 77.867146 c 42.8269,0 77.8671,0.27489 77.8671,0.61087 0,0.88422 -194.2325658,195.38913 -195.1155458,195.38913 -0.40731,0 -0.98518,-2.3625 -1.28416,-5.25 z M 455.15714,193.3157 c 0,-111.271593 0.2473,-138.000003 1.2767,-138.000003 4.021,0 37.4593,30.6995 50.6484,46.500003 27.8768,33.39622 49.5509,74.97194 58.5634,112.33748 l 1.7698,7.33748 -54.8639,54.91252 c -30.1751,30.20189 -55.4333,54.91252 -56.1292,54.91252 -1.0142,0 -1.2652,-27.37877 -1.2652,-138 z m -114.8832,-91.38315 c -57.8319,-57.834183 -97.099,-97.8367234 -96.689,-98.5000034 0.3796,-0.61427 2.8012,-1.12054 5.3812,-1.12505 2.58,-0.005 8.741,-0.48325 13.691,-1.06386 33.8845,-3.97447 82.845,1.8187 117.742,13.9316104 18.6878,6.48664 40.907,16.76354 53.008,24.51749 l 5.75,3.68442 v 77.969273 c 0,42.8831 -0.3384,77.96927 -0.7519,77.96927 -0.4136,0 -44.5727,-43.82242 -98.1313,-97.38315 z M 55.484494,118.03637 c -1.36171,-2.20328 39.37235,-45.981203 48.952346,-52.610403 1.2212,-0.84501 4.6953,-3.54923 7.7203,-6.00938 10.2363,-8.3249 32.0241,-21.9164 47.2996,-29.50607 17.087,-8.48972 30.7629,-13.78853 49.3227,-19.11039 l 12.6435,-3.6254004 52.6171,52.4302104 c 28.9394,28.83661 53.9251,53.622803 55.5238,55.080413 1.5987,1.45762 2.683,2.87393 2.4096,3.14737 -0.8352,0.83519 -275.973386,1.03785 -276.488946,0.20365 z"
     style="fill:#030303" />
</svg>
